<svg xmlns="http://www.w3.org/2000/svg" viewBox="0 0 1916.67 427.41"><defs><style>.cls-1{fill:#29abe2;}.cls-2{fill:#214654;}.cls-3{fill:#959595;}</style></defs><title>Asset 1</title><g id="Layer_2" data-name="Layer 2"><g id="Layer_1-2" data-name="Layer 1"><path class="cls-1" d="M42.2,154.17a69.18,69.18,0,0,0,1.18,13.34,23,23,0,0,0,4.4,10.11,21.48,21.48,0,0,0,8.64,6.45,34.52,34.52,0,0,0,13.63,2.34,26.92,26.92,0,0,0,17.44-6.3q7.76-6.3,7.77-19.49a35,35,0,0,0-1.91-12.17,24.12,24.12,0,0,0-6.3-9.23,44.62,44.62,0,0,0-11.58-7.47,166.9,166.9,0,0,0-17.73-6.89A150.68,150.68,0,0,1,33.41,114.6a65.13,65.13,0,0,1-17.14-13A46.64,46.64,0,0,1,6.15,84.27,72.86,72.86,0,0,1,2.93,61.55q0-31.06,17.29-46.31T67.7,0a103.39,103.39,0,0,1,26,3.08,54.4,54.4,0,0,1,20.51,10,46.59,46.59,0,0,1,13.48,17.58q4.85,10.69,4.84,25.65v5.86H92q0-15-5.27-23T69.17,31.07a29.41,29.41,0,0,0-11.72,2A19.86,19.86,0,0,0,50,38.54a18.62,18.62,0,0,0-3.81,7.77,39.52,39.52,0,0,0-1,9.09q0,9.68,4.1,16.26T66.83,83.83L99.36,97.9a99.72,99.72,0,0,1,19.64,11,53.53,53.53,0,0,1,12.16,12.31,40.9,40.9,0,0,1,6.3,14.5,81.42,81.42,0,0,1,1.76,17.59q0,33.14-19.2,48.21T66.53,216.6q-35.76,0-51.14-15.53T0,156.52V148H42.2Z"/><path class="cls-1" d="M277.27,38.69H202.53V87.93h70.34v34.59H202.53v56.27H280.2v34.59H160.33V4.11H277.27Z"/><path class="cls-1" d="M379.27,4.11q26.39,0,41,13.33T435,58q0,21.09-8.51,34.43t-26.37,17.15v.59q15.82,2.34,23.15,10.25T432.32,146c.39,3.9.68,8.16.88,12.75s.39,9.72.58,15.38q.59,16.71,1.76,25.5c1.18,5.86,3.71,9.87,7.63,12v1.76H397.44a22.54,22.54,0,0,1-4.1-10.12,113.66,113.66,0,0,1-1.18-11.86L391,151.24q-.6-12.31-6.16-19.35t-18.76-7H343.51v88.52H301.3V4.11ZM361.09,95.55q15.26,0,23.45-7.18t8.21-24.18q0-29-29.31-29H343.51V95.55Z"/><path class="cls-1" d="M525.23,158.86h.88L557.18,4.11h43.67L552.78,213.38H498.56L450.49,4.11h45.14Z"/><path class="cls-1" d="M618.44,4.11h42.2V213.38h-42.2Z"/><path class="cls-1" d="M776,41.47q-5.43-10.39-19.78-10.4-7.92,0-13.05,4.25t-8.06,13.77Q732.15,58.63,731,74t-1.18,37.66a367.33,367.33,0,0,0,1.61,38.4q1.62,14.66,5,22.71t8.5,10.85a24.52,24.52,0,0,0,11.87,2.78,28.19,28.19,0,0,0,10.41-1.9q4.83-1.9,8.35-7.62t5.57-16.12q2-10.41,2-27.41h42.2a188.76,188.76,0,0,1-2.63,32.24,73,73,0,0,1-9.82,26.68,48.8,48.8,0,0,1-20.22,17.87q-13.05,6.45-33.86,6.45-23.75,0-37.8-7.62a51.32,51.32,0,0,1-21.55-22q-7.49-14.35-9.67-34.29a402,402,0,0,1-2.2-44,403.09,403.09,0,0,1,2.2-43.82q2.19-20.07,9.67-34.44A54.13,54.13,0,0,1,721,8.06Q735.09,0,758.83,0q22.56,0,35.61,7.33t19.5,18.61a64.57,64.57,0,0,1,8,24.33,199,199,0,0,1,1.62,24.47H781.4Q781.4,51.88,776,41.47Z"/><path class="cls-1" d="M966.35,38.69H891.6V87.93H962v34.59H891.6v56.27h77.67v34.59H849.4V4.11h117Z"/><path class="cls-2" d="M1061,4.11a102.21,102.21,0,0,1,23.89,2.63,49.06,49.06,0,0,1,18.91,8.79A40.62,40.62,0,0,1,1116.12,32q4.39,10.26,4.4,25.21,0,17-7.92,29.16t-23.74,16.56v.59q17.58,2.34,27.85,14.94T1127,152.12a83.92,83.92,0,0,1-3.22,23.45,47.86,47.86,0,0,1-11,19.49,54.87,54.87,0,0,1-20.23,13.33q-12.46,5-30.92,5H990.37V4.11ZM1044.6,90q17.58,0,25.65-6.3t8-21.25q0-14.94-7.32-21.1t-23.16-6.15h-15.24V90Zm4.4,92.33q15.23,0,24.62-6.74t9.37-24.92q0-9.08-2.49-15.09a25.4,25.4,0,0,0-6.74-9.67,24.2,24.2,0,0,0-10.11-5.13,53,53,0,0,0-12.89-1.47h-18.18v63Z"/><path class="cls-2" d="M1231.3,4.11q26.39,0,41,13.33T1287,58q0,21.09-8.49,34.43t-26.39,17.15v.59q15.83,2.34,23.16,10.25t9.09,25.51c.38,3.9.67,8.16.87,12.75s.39,9.72.59,15.38q.59,16.71,1.76,25.5,1.76,8.79,7.62,12v1.76h-45.72a22.67,22.67,0,0,1-4.11-10.12,111,111,0,0,1-1.17-11.86L1243,151.24q-.6-12.31-6.16-19.35t-18.76-7h-22.56v88.52h-42.21V4.11Zm-18.17,91.44q15.24,0,23.45-7.18t8.2-24.18q0-29-29.3-29h-19.93V95.55Z"/><path class="cls-2" d="M1463.17,4.11q22,0,35.47,7.17a51.27,51.27,0,0,1,21,20.52q7.45,13.33,10.1,32.1a300.94,300.94,0,0,1,2.64,41.91q0,27.56-3.37,47.92t-11.57,33.56a50.75,50.75,0,0,1-22,19.64q-13.77,6.45-34.87,6.45H1394V4.11ZM1455,182.31q11.13,0,17.88-3.81t10.7-12.61q4-8.79,5.28-23.15t1.32-35.76q0-17.87-1.17-31.36t-4.84-22.42a28,28,0,0,0-10.84-13.48q-7.2-4.55-19.2-4.54h-17.88V182.31Z"/><path class="cls-2" d="M1645.84,54.23a38.93,38.93,0,0,0-4.26-11.29,27.36,27.36,0,0,0-7.47-8.5,17.92,17.92,0,0,0-11-3.37q-15.26,0-22,17t-6.74,56.28q0,18.75,1.17,34a131.14,131.14,0,0,0,4.25,25.94q3.09,10.69,8.79,16.41t14.8,5.71a20.48,20.48,0,0,0,8.36-2,27.5,27.5,0,0,0,8.5-6.16,33.24,33.24,0,0,0,6.59-10.4,38.1,38.1,0,0,0,2.64-14.8V131.6h-27.84V100.53H1690V213.38h-31.07V194h-.59q-7.62,12.32-18.32,17.44t-25.65,5.13q-19.33,0-31.5-6.74t-19-20.81q-6.88-14.07-9.24-34.73a431.3,431.3,0,0,1-2.34-47.92q0-26.39,3.38-46.31t11.57-33.27a52.93,52.93,0,0,1,21.69-20.08Q1602.3,0,1622.53,0q34.59,0,49.83,17.15t15.24,49.09h-40.45A57.17,57.17,0,0,0,1645.84,54.23Z"/><path class="cls-2" d="M1834.15,38.69h-74.74V87.93h70.35v34.59h-70.35v56.27h77.68v34.59H1717.21V4.11h116.94Z"/><path class="cls-2" d="M1840.26,11.94V4.11h28v7.83h-9.33V38.6h-9.33V11.94Zm67.41,3-7.92,23.66h-8.33l-7.91-23.66h-.18V38.6h-8.82V4.11h14.07l6.92,20.83h.17l6.91-20.83h14.09V38.6h-8.83V14.94Z"/><path class="cls-2" d="M1318.81,4.11H1361V213.38h-42.21Z"/><path class="cls-3" d="M674.79,318q19.31,0,28.74,7.34T713,346.22a28.92,28.92,0,0,1-2.76,13.19,22.35,22.35,0,0,1-7.87,8.78,35.44,35.44,0,0,1-12.53,4.86,84,84,0,0,1-16.73,1.51H660.75v35.17h-8.92V320.5a63.11,63.11,0,0,1,11.09-1.9Q669.28,318,674.79,318Zm.4,7.74q-5,0-8.46.32t-6,.6v40.15H672a90.49,90.49,0,0,0,13.05-.86,28.93,28.93,0,0,0,10-3.14,15.85,15.85,0,0,0,6.36-6.37,21.37,21.37,0,0,0,2.23-10.36,18.82,18.82,0,0,0-2.42-10,17.94,17.94,0,0,0-6.43-6.23,28.17,28.17,0,0,0-9.12-3.21A58.67,58.67,0,0,0,675.19,325.75Z"/><rect class="cls-3" x="809.99" y="318.18" width="13.95" height="92.16"/><rect class="cls-3" x="1020.46" y="318.18" width="13.95" height="92.16"/><polygon class="cls-3" points="1207.71 356.1 1164.45 356.1 1164.45 318.18 1150.5 318.18 1150.5 410.34 1164.45 410.34 1164.45 368.35 1207.71 368.35 1207.71 410.34 1221.67 410.34 1221.67 318.18 1207.71 318.18 1207.71 356.1"/><polygon class="cls-3" points="1237.1 318.18 1237.1 330.43 1265.71 330.43 1265.71 410.34 1279.66 410.34 1279.66 330.43 1308.27 330.43 1308.27 318.18 1237.1 318.18"/><polygon class="cls-3" points="909.05 318.18 909.05 383.93 859.54 318.18 848.56 318.18 848.56 410.34 862.25 410.34 862.25 345.39 911.15 410.34 922.74 410.34 922.74 318.18 909.05 318.18"/><path class="cls-3" d="M1127.7,322.48a29,29,0,0,0-3-1.61,40.66,40.66,0,0,0-5.66-2.14,64.56,64.56,0,0,0-8.29-1.85,69,69,0,0,0-11-.8,46.36,46.36,0,0,0-17.22,3.19,40.47,40.47,0,0,0-14.06,9.33,44.73,44.73,0,0,0-9.51,15.09,55.89,55.89,0,0,0-3.52,20.5,61.83,61.83,0,0,0,3.12,20.42,42.14,42.14,0,0,0,8.85,15,38,38,0,0,0,13.74,9.34,47.55,47.55,0,0,0,17.68,3.19c3.15,0,6.31-.16,9.37-.46s5.89-.68,8.51-1.12,4.89-.89,6.86-1.32,3.53-.85,4.58-1.2l.42-.14V364.37h-28.78v12.25h14.83v21.76a50.26,50.26,0,0,1-5.06,1,64.19,64.19,0,0,1-9.29.58,31.35,31.35,0,0,1-13.19-2.57,25.5,25.5,0,0,1-9.36-7.24,31.42,31.42,0,0,1-5.66-11.26,53.61,53.61,0,0,1-1.88-14.67,47.67,47.67,0,0,1,2.2-15,33.46,33.46,0,0,1,6.12-11.28,25.93,25.93,0,0,1,9.48-7.05,30.86,30.86,0,0,1,12.42-2.44,50,50,0,0,1,12.7,1.62,40.2,40.2,0,0,1,7.27,2.59v0a52.27,52.27,0,0,1,7.81,4.86V322.75Z"/><path class="cls-3" d="M618.77,319a54.2,54.2,0,0,0-16.67-2.17A43.43,43.43,0,0,0,585.57,320,39.74,39.74,0,0,0,572,329.09a42.85,42.85,0,0,0-9.25,14.83,56,56,0,0,0-3.41,20.27,60.35,60.35,0,0,0,3.15,20.28,42,42,0,0,0,8.72,14.83,37.38,37.38,0,0,0,13.19,9.12,42.77,42.77,0,0,0,16.53,3.15,83.35,83.35,0,0,0,17.92-1.64,68.38,68.38,0,0,0,9.77-2.7V366.69H604.2v7.74h15.49v27.16a31.46,31.46,0,0,1-6.1,1.38,73.22,73.22,0,0,1-11.22.72,36.17,36.17,0,0,1-14.57-2.75A27.94,27.94,0,0,1,577.24,393a34.38,34.38,0,0,1-6.37-12.47,58.92,58.92,0,0,1-2.09-16.34,51.93,51.93,0,0,1,2.55-17.05,36.2,36.2,0,0,1,7-12.34,28.7,28.7,0,0,1,10.5-7.48,33.37,33.37,0,0,1,12.86-2.49,54.22,54.22,0,0,1,13.65,1.64,34.88,34.88,0,0,1,7.73,2.9v0a36.41,36.41,0,0,1,5.26,3.51v-9.74A43.55,43.55,0,0,0,618.77,319Z"/><path class="cls-3" d="M741.85,328.17a17.19,17.19,0,0,1,6.23-2.75,34.47,34.47,0,0,1,7.94-.85,42.14,42.14,0,0,1,11.75,1.57,31.74,31.74,0,0,1,9.25,4.2v-9.2c-.38-.17-.71-.35-1.12-.51a50.23,50.23,0,0,0-5.64-1.9,55.29,55.29,0,0,0-6.63-1.38,49,49,0,0,0-7.21-.53q-13.78,0-21.52,6t-7.75,17.71a22.49,22.49,0,0,0,1.64,8.93,20.43,20.43,0,0,0,4.79,6.76,34.83,34.83,0,0,0,7.61,5.3,100.64,100.64,0,0,0,10.11,4.56q4.46,1.83,8.53,3.46a32.59,32.59,0,0,1,7.21,3.93,17.68,17.68,0,0,1,5.06,5.66,16.67,16.67,0,0,1,1.9,8.35q0,8.67-5.9,12.56T751.56,404a49.36,49.36,0,0,1-8.4-.66,48.49,48.49,0,0,1-6.82-1.64,44.88,44.88,0,0,1-5.25-2c-1.49-.69-2.67-1.31-3.55-1.83V407c.28.12.5.24.79.37a44.59,44.59,0,0,0,5.78,2,62.37,62.37,0,0,0,7.74,1.64,63.88,63.88,0,0,0,9.58.66q14.69,0,23.29-6.17t8.59-18.5a24.21,24.21,0,0,0-2.09-10.63,22.29,22.29,0,0,0-5.64-7.35,37,37,0,0,0-8.34-5.25q-4.79-2.24-10.17-4.46c-3-1.23-5.73-2.41-8.26-3.54a35.2,35.2,0,0,1-6.63-3.81,15.22,15.22,0,0,1-4.4-5,14.59,14.59,0,0,1-1.57-7.08,14.84,14.84,0,0,1,1.51-7A13.71,13.71,0,0,1,741.85,328.17Z"/><path class="cls-3" d="M961.71,331.38A16.78,16.78,0,0,1,967,329.1a27.18,27.18,0,0,1,6.67-.77,43.82,43.82,0,0,1,12.49,1.61,35.5,35.5,0,0,1,8,3.28V319.55a55.71,55.71,0,0,0-5.36-1.68,60.15,60.15,0,0,0-15.18-1.79c-9.64,0-17.32,2.3-22.83,6.83s-8.35,11-8.35,19.11a23.81,23.81,0,0,0,2,10.1,22.35,22.35,0,0,0,5.33,7.22,33.92,33.92,0,0,0,7.88,5.21,83.92,83.92,0,0,0,9.5,3.9c2.89,1,5.64,2.1,8.18,3.14a32.3,32.3,0,0,1,6.77,3.67,16.73,16.73,0,0,1,4.62,4.93,13.14,13.14,0,0,1,1.68,6.84c0,8.77-6.32,13-19.33,13a47.08,47.08,0,0,1-14.9-2.06,57.77,57.77,0,0,1-9.08-3.76l-.63-.36V407.6l.29.13a46.27,46.27,0,0,0,6.18,2.13,75.85,75.85,0,0,0,8.14,1.72,63.57,63.57,0,0,0,10,.73c10.67,0,19.07-2.2,25-6.55s9-10.74,9-18.87a28.13,28.13,0,0,0-2-11.2,23.26,23.26,0,0,0-5.72-8,36.09,36.09,0,0,0-8.68-5.75c-3.25-1.55-6.9-3.15-10.87-4.74-2.78-1-5.35-2.09-7.65-3.13a34.13,34.13,0,0,1-6-3.42,13.72,13.72,0,0,1-3.9-4.21,11.63,11.63,0,0,1-1.36-5.86,10.84,10.84,0,0,1,1.3-5.4A11.09,11.09,0,0,1,961.71,331.38Z"/><path class="cls-3" d="M1393.12,303.44A20.86,20.86,0,1,0,1414,324.3,20.88,20.88,0,0,0,1393.12,303.44Z"/><path class="cls-3" d="M1341.92,271.61a20.86,20.86,0,1,0,20.86,20.86A20.89,20.89,0,0,0,1341.92,271.61Z"/><path class="cls-3" d="M1341.92,335.28a20.86,20.86,0,1,0,20.86,20.85A20.88,20.88,0,0,0,1341.92,335.28Z"/><path class="cls-3" d="M472.27,365.53a29.92,29.92,0,0,1,9.39-6.28,29,29,0,0,1,11.15-2.08,19.93,19.93,0,0,1,7.84,1.46,16.12,16.12,0,0,1,5.76,4,17.2,17.2,0,0,1,3.52,6.28,26,26,0,0,1,1.2,8.09v33.62H507a4.1,4.1,0,0,1-2.08-.44,3,3,0,0,1-1.14-1.74l-1-5a52.54,52.54,0,0,1-4,3.4,24.15,24.15,0,0,1-4.15,2.49,22.58,22.58,0,0,1-4.64,1.55,25,25,0,0,1-5.48.55,19,19,0,0,1-5.76-.86,13.2,13.2,0,0,1-4.69-2.57,12,12,0,0,1-3.17-4.33,15.24,15.24,0,0,1-1.16-6.2,11.58,11.58,0,0,1,1.71-6,15,15,0,0,1,5.55-5.11,36.68,36.68,0,0,1,10-3.65,75.85,75.85,0,0,1,15.15-1.64V377c0-4.08-.88-7.16-2.65-9.26s-4.34-3.14-7.73-3.14a16.63,16.63,0,0,0-5.73.86,21.2,21.2,0,0,0-4,1.92q-1.69,1.06-2.91,1.92a4.16,4.16,0,0,1-2.41.85,2.65,2.65,0,0,1-1.61-.49,4.43,4.43,0,0,1-1.14-1.22ZM502.1,387a78.22,78.22,0,0,0-10.87,1,30.71,30.71,0,0,0-7.31,2.11,10,10,0,0,0-4.1,3.06,6.55,6.55,0,0,0-1.27,3.94,8.7,8.7,0,0,0,.67,3.58,6.75,6.75,0,0,0,1.84,2.46,7.39,7.39,0,0,0,2.75,1.4,12.42,12.42,0,0,0,3.4.44,18.75,18.75,0,0,0,4.46-.49,16.69,16.69,0,0,0,3.82-1.43,21.71,21.71,0,0,0,3.42-2.22,31.18,31.18,0,0,0,3.19-3Z"/><path class="cls-3" d="M1464.7,366.41a3.94,3.94,0,0,1-.83.88,1.84,1.84,0,0,1-1.14.31A3.08,3.08,0,0,1,1461,367c-.62-.43-1.39-.91-2.31-1.42a18.34,18.34,0,0,0-3.37-1.43,18.2,18.2,0,0,0-11.75.72,13.29,13.29,0,0,0-4.95,4,17.81,17.81,0,0,0-3,6.28,31,31,0,0,0-1,8.25,30.35,30.35,0,0,0,1.09,8.48,18.27,18.27,0,0,0,3.09,6.23,13.46,13.46,0,0,0,4.82,3.84,14.89,14.89,0,0,0,6.36,1.32,15.35,15.35,0,0,0,9.16-2.6c.95-.65,1.74-1.25,2.38-1.79a3,3,0,0,1,1.9-.8,2,2,0,0,1,1.76.88l2.59,3.37a18.6,18.6,0,0,1-3.89,3.64,24,24,0,0,1-4.69,2.51,25.25,25.25,0,0,1-5.27,1.48,33.5,33.5,0,0,1-5.6.47,23,23,0,0,1-9.16-1.82,20.79,20.79,0,0,1-7.34-5.27,24.49,24.49,0,0,1-4.87-8.48,37.32,37.32,0,0,1-.13-22.3,24.6,24.6,0,0,1,4.77-8.59,21.73,21.73,0,0,1,7.73-5.63,25.94,25.94,0,0,1,10.56-2,24.93,24.93,0,0,1,9.77,1.79,23.37,23.37,0,0,1,7.5,5.06Z"/><path class="cls-3" d="M1499.3,356.24a26.82,26.82,0,0,1,10.38,1.92,22.28,22.28,0,0,1,7.89,5.45,24,24,0,0,1,5,8.53,36.85,36.85,0,0,1,0,22.38,24,24,0,0,1-5,8.51,21.83,21.83,0,0,1-7.89,5.42,27.19,27.19,0,0,1-10.38,1.9,27.52,27.52,0,0,1-10.45-1.9,21.82,21.82,0,0,1-7.91-5.42,23.86,23.86,0,0,1-5-8.51,37.05,37.05,0,0,1,0-22.38,23.87,23.87,0,0,1,5-8.53,22.27,22.27,0,0,1,7.91-5.45A27.14,27.14,0,0,1,1499.3,356.24Zm0,46.9q7.79,0,11.62-5.22t3.84-14.55q0-9.39-3.84-14.63t-11.62-5.24a16.29,16.29,0,0,0-6.87,1.35,12.78,12.78,0,0,0-4.87,3.89,17.3,17.3,0,0,0-2.91,6.25,33.57,33.57,0,0,0-1,8.38q0,9.35,3.87,14.55T1499.3,403.14Z"/><path class="cls-3" d="M1535.46,409.62V357.07H1541a2.28,2.28,0,0,1,2.44,1.92l.68,5.39a26.7,26.7,0,0,1,6.53-5.86,15.47,15.47,0,0,1,8.41-2.28,12.33,12.33,0,0,1,8.58,3,16.59,16.59,0,0,1,4.75,8,17.22,17.22,0,0,1,2.93-4.93,16.51,16.51,0,0,1,4-3.43,17.17,17.17,0,0,1,4.75-2,21.4,21.4,0,0,1,5.11-.62,19.48,19.48,0,0,1,7.39,1.32,14.63,14.63,0,0,1,5.5,3.87,17.33,17.33,0,0,1,3.45,6.25,27.83,27.83,0,0,1,1.19,8.48v33.46h-9.28V376.16c0-4.11-.91-7.24-2.7-9.36s-4.39-3.19-7.78-3.19a11.7,11.7,0,0,0-4.34.8,10.52,10.52,0,0,0-3.6,2.36,11.09,11.09,0,0,0-2.47,3.92,15.26,15.26,0,0,0-.9,5.47v33.46h-9.29V376.16q0-6.33-2.54-9.44c-1.7-2.08-4.17-3.11-7.42-3.11a11.59,11.59,0,0,0-6.33,1.84,20.85,20.85,0,0,0-5.34,5v39.17Z"/><path class="cls-3" d="M1629.1,365.21a27.12,27.12,0,0,1,7.68-6.58,19.69,19.69,0,0,1,10-2.5,19.25,19.25,0,0,1,8.25,1.74,16.91,16.91,0,0,1,6.27,5.14,24.73,24.73,0,0,1,4,8.43,43.4,43.4,0,0,1,1.4,11.57,36.12,36.12,0,0,1-1.56,10.81,26,26,0,0,1-4.49,8.67,20.71,20.71,0,0,1-16.67,7.86,18.17,18.17,0,0,1-14.37-6.18v23.24h-9.29V357.07h5.55a2.28,2.28,0,0,1,2.44,1.92Zm.47,31.75a14.86,14.86,0,0,0,5.55,4.83,15.81,15.81,0,0,0,6.74,1.4q7.37,0,11.31-5.24t3.94-14.94a37.53,37.53,0,0,0-.9-8.82,17.09,17.09,0,0,0-2.63-6,10.08,10.08,0,0,0-4.2-3.45,13.89,13.89,0,0,0-5.65-1.09,14.88,14.88,0,0,0-7.91,2.07,22.87,22.87,0,0,0-6.25,5.86Z"/><path class="cls-3" d="M1676.56,364.49a30.1,30.1,0,0,1,9.39-6.28,29.11,29.11,0,0,1,11.16-2.08,19.84,19.84,0,0,1,7.83,1.46,16.25,16.25,0,0,1,5.76,4,17.22,17.22,0,0,1,3.53,6.28,26.35,26.35,0,0,1,1.19,8.09v33.62h-4.1a3.93,3.93,0,0,1-2.07-.44,2.92,2.92,0,0,1-1.14-1.74l-1-5a50.77,50.77,0,0,1-4,3.4,22.57,22.57,0,0,1-8.79,4.05,25.61,25.61,0,0,1-5.47.54,19.29,19.29,0,0,1-5.76-.85,13.31,13.31,0,0,1-4.7-2.57,12.15,12.15,0,0,1-3.16-4.33,15.14,15.14,0,0,1-1.17-6.2,11.59,11.59,0,0,1,1.71-6,15.08,15.08,0,0,1,5.55-5.11,36.63,36.63,0,0,1,10-3.65,76.4,76.4,0,0,1,15.14-1.64V376c0-4.08-.88-7.16-2.64-9.26s-4.34-3.13-7.73-3.13a16.61,16.61,0,0,0-5.73.85,21.3,21.3,0,0,0-4,1.92c-1.12.71-2.09,1.35-2.9,1.92a4.23,4.23,0,0,1-2.42.86,2.63,2.63,0,0,1-1.6-.5,4.39,4.39,0,0,1-1.14-1.21ZM1706.39,386a75.11,75.11,0,0,0-10.86,1,30.38,30.38,0,0,0-7.32,2.1,10.08,10.08,0,0,0-4.1,3.06,6.64,6.64,0,0,0-1.27,3.94,8.69,8.69,0,0,0,.68,3.58,6.68,6.68,0,0,0,1.84,2.47,7.29,7.29,0,0,0,2.75,1.39,12.31,12.31,0,0,0,3.4.45,18.79,18.79,0,0,0,4.46-.5,16.42,16.42,0,0,0,3.81-1.42,22.52,22.52,0,0,0,3.42-2.23,29.15,29.15,0,0,0,3.19-3Z"/><path class="cls-3" d="M1737.68,364.7a31.25,31.25,0,0,1,3.63-3.48,23.39,23.39,0,0,1,4.07-2.67,20.48,20.48,0,0,1,4.56-1.71,21.61,21.61,0,0,1,5.22-.6,19,19,0,0,1,7.6,1.43,14.8,14.8,0,0,1,5.5,4,17.91,17.91,0,0,1,3.34,6.3,27.54,27.54,0,0,1,1.14,8.15v33.46h-9.28V376.16c0-4-.91-7.06-2.72-9.26s-4.58-3.29-8.28-3.29a15.46,15.46,0,0,0-7.65,2,24.94,24.94,0,0,0-6.56,5.34v38.7H1729V357.07h5.55A2.28,2.28,0,0,1,1737,359Z"/><path class="cls-3" d="M1831.68,357.07l-29.31,68.06a4.75,4.75,0,0,1-1.17,1.66,3.15,3.15,0,0,1-2.15.62h-6.85l9.6-20.85-21.69-49.49h8a2.78,2.78,0,0,1,1.89.6,3.05,3.05,0,0,1,1,1.32l14.06,33.1a37.28,37.28,0,0,1,1.4,4.56q.73-2.43,1.56-4.61L1821.61,359a2.92,2.92,0,0,1,1.07-1.37,2.75,2.75,0,0,1,1.68-.55Z"/></g></g></svg>